# xmcd CD database file
#
# Track frame offsets:
#	150
#	17455
#	33871
#	50899
#	66307
#	89180
#	104856
#	121632
#	132109
#	157149
#
# Disc length: 2228 seconds
#
# Revision: 0
# Processed by: cddbd v1.5.1PL2 Copyright (c) Steve Scherf et al.
# Submitted via: CDex 1.51
#
DISCID=8d08b20a
DTITLE=Oslo String Swing Artillerie - Swing 05
DYEAR=2005
DGENRE=Jazz
TTITLE0=Swing 05
TTITLE1=We three
TTITLE2=J. L. Bounce
TTITLE3=Caravan
TTITLE4=Baghdad
TTITLE5=Night and day
TTITLE6=Valse à Charlotte
TTITLE7=Ni L'un L'autre
TTITLE8=Nuages
TTITLE9=Resumé
EXTD=YEAR: 2005
EXTT0=
EXTT1=
EXTT2=
EXTT3=
EXTT4=
EXTT5=
EXTT6=
EXTT7=
EXTT8=
EXTT9=
PLAYORDER=
